<svg id="Layer_1" data-name="Layer 1" xmlns="http://www.w3.org/2000/svg" viewBox="0 0 25 25"><defs><style>.cls-1{fill-rule:evenodd;}</style></defs><title>casting</title><path class="cls-1" d="M7.31,25c-.65-.5-.7-.81-.24-1.49L9.34,20.2c-.23,0-.39,0-.56,0-1.2,0-2.41,0-3.61,0a2.47,2.47,0,0,1-2.58-2.51c0-1.55,0-3.1,0-4.64a2.42,2.42,0,0,1,2.56-2.5h11.5c1.29,0,1.82.39,2.62,1.89l3.49-1.68c.95-.46,1.5-.14,1.5.87,0,2.49,0,5,0,7.46,0,1-.55,1.34-1.49.89l-3.52-1.71-.19.42a2.5,2.5,0,0,1-2.43,1.51H12.49l1,1.52c.41.61.83,1.21,1.25,1.81s.41,1-.23,1.51H14a9.72,9.72,0,0,1-.66-.78c-.79-1.11-1.55-2.24-2.37-3.42-.39.57-.74,1.1-1.11,1.61-.63.87-1.27,1.73-1.9,2.59Zm3.6-6.43h5.57c.81,0,1.13-.29,1.13-1q0-2.21,0-4.41c0-.7-.33-1-1.05-1H5.31c-.76,0-1.07.32-1.07,1.06,0,1.43,0,2.87,0,4.3,0,.86.28,1.13,1.16,1.14h5.51M22.56,18V12.61l-1.69.81c-1.68.81-1.68.81-1.62,2.62a.48.48,0,0,0,0,.12c.08.13.13.33.25.39,1,.5,2,1,3.06,1.49"/><path class="cls-1" d="M10.92,7.56a5.17,5.17,0,0,1-7.66.74,4.75,4.75,0,0,1,.06-7,5.16,5.16,0,0,1,7.61.8A5.07,5.07,0,0,1,15.27,0a4.88,4.88,0,0,1,3.5,1.57,4.75,4.75,0,0,1-.28,6.81,5.18,5.18,0,0,1-7.57-.82m4.19-6a3.33,3.33,0,0,0-3.38,3.23,3.36,3.36,0,0,0,6.71,0A3.32,3.32,0,0,0,15.11,1.6m-8.37,0A3.3,3.3,0,0,0,3.41,4.86,3.31,3.31,0,0,0,6.74,8.07,3.31,3.31,0,0,0,10.1,4.83,3.31,3.31,0,0,0,6.74,1.6"/><path class="cls-1" d="M15.1,6.43a1.58,1.58,0,0,1-1.65-1.59,1.63,1.63,0,0,1,1.63-1.62,1.65,1.65,0,0,1,1.66,1.6A1.61,1.61,0,0,1,15.1,6.43"/><path class="cls-1" d="M8.4,4.81A1.6,1.6,0,0,1,6.78,6.43,1.63,1.63,0,0,1,5.09,4.86,1.67,1.67,0,0,1,6.73,3.22,1.64,1.64,0,0,1,8.4,4.81"/></svg>