<svg id="Layer_1" data-name="Layer 1" xmlns="http://www.w3.org/2000/svg" viewBox="0 0 25 25"><defs><style>.cls-1{fill-rule:evenodd;}</style></defs><title>magazine</title><path class="cls-1" d="M6.07,0l.42.12a2.62,2.62,0,0,1,1.76,2h13c.51,0,.6.09.6.59V19.43a2.25,2.25,0,0,1,0,.26.37.37,0,0,1-.73,0,2.44,2.44,0,0,1,0-.27V2.93H8.26V8.86c0,.28-.14.45-.36.46s-.38-.17-.38-.47V2.73a2.64,2.64,0,0,0-.06-.63A1.77,1.77,0,0,0,5.59.75,1.8,1.8,0,0,0,3.93,2.47V20.64a2.61,2.61,0,0,1,3.59,0V10.43a2.44,2.44,0,0,1,0-.27.34.34,0,0,1,.34-.34.35.35,0,0,1,.38.31,1.11,1.11,0,0,1,0,.26V22.05H21.1V21c0-.3.14-.47.37-.47s.37.17.37.47v1.37c0,.34-.12.46-.47.46-1.28,0-2.56,0-3.84,0H8.26c-.67,0-.67,0-.77-.66a1.79,1.79,0,0,0-3.55.21,1.79,1.79,0,0,0,1.43,1.86,3.43,3.43,0,0,0,.56,0H20.35a.6.6,0,0,1,.27,0,.64.64,0,0,1,.28.26c.08.21-.07.35-.23.46H5.39l0,0a2.54,2.54,0,0,1-2.16-2.76V2.44a2.55,2.55,0,0,1,1-1.91A3,3,0,0,1,5.39,0Z"/><path class="cls-1" d="M14.05,9v3.73c0,.41-.12.52-.52.52H9.23c-.39,0-.51-.12-.51-.51V5.23c0-.4.12-.51.51-.51h4.32c.39,0,.5.11.5.5V9m-.76,3.5v-7H12.23a6.66,6.66,0,0,1,.25.8,1.39,1.39,0,0,1-.33,1.42.31.31,0,0,0-.05.2l.15,2.7c0,.38-.11.52-.49.52h-.52c0,.48,0,.92-.07,1.37Zm-1.8-2.12q-.06-1.14-.12-2.22l-1.89.28v4.05h.94c0-.57.07-1.12.1-1.67a.39.39,0,0,1,.44-.44h.53m-2-2.74a2,2,0,0,0,.36,0c.53-.1,1.05-.2,1.57-.34a.51.51,0,0,0,.38-.59,2.38,2.38,0,0,0-.41-1.13.29.29,0,0,0-.21-.08H9.64l-.16,0Z"/><path class="cls-1" d="M14.86,13.48V9.74c0-.39.12-.51.51-.51h4.29c.41,0,.52.12.52.53v7.47c0,.41-.11.52-.52.52H15.39c-.43,0-.53-.11-.53-.54ZM19.44,10H15.61v4.9c.32-.38.61-.71.91-1s.41-.28.68,0l.8.7,1.38-1.39a.39.39,0,0,0,.06-.25c0-.76,0-1.53,0-2.29Zm0,7V14.23L18.6,15l.36.32a.39.39,0,0,1,.07.57.37.37,0,0,1-.56,0c-.22-.18-.43-.38-.65-.58l-.92-.8L15.67,16a.26.26,0,0,0-.07.15c0,.29,0,.58,0,.89Z"/><path class="cls-1" d="M8.37,23.9c-.85,0-1.7,0-2.56,0a1.43,1.43,0,1,1,0-2.86,1.41,1.41,0,0,1,1.36,1.28c0,.31-.09.49-.32.51s-.38-.13-.42-.43a.7.7,0,0,0-.57-.62.72.72,0,0,0-.72.35.65.65,0,0,0,.12.81,1,1,0,0,0,.57.21c.65,0,1.3,0,2,0H11a1.1,1.1,0,0,1,.26,0,.36.36,0,0,1,0,.7,1.14,1.14,0,0,1-.26,0H8.37"/><path class="cls-1" d="M16.62,23.16h4c.11,0,.24,0,.31,0a.56.56,0,0,1,.21.36c0,.1-.13.24-.24.31s-.2,0-.31,0h-8c-.38,0-.57-.12-.57-.37s.19-.37.58-.37Z"/><path class="cls-1" d="M17.52,7H15.33a.42.42,0,0,1-.46-.28.36.36,0,0,1,.27-.45,1.42,1.42,0,0,1,.29,0h4.32c.27,0,.44.16.43.39S20,7,19.74,7H17.52"/><path class="cls-1" d="M11.42,15.6h2.14a.62.62,0,0,1,.38.12.35.35,0,0,1-.14.59,1.09,1.09,0,0,1-.31,0c-1.4,0-2.8,0-4.2,0a1,1,0,0,1-.17,0c-.24,0-.4-.17-.39-.37a.37.37,0,0,1,.4-.37h2.29Z"/><path class="cls-1" d="M17.52,19.45H15.2a.35.35,0,0,1-.34-.35.36.36,0,0,1,.34-.38c.18,0,.37,0,.56,0h4a.37.37,0,1,1,0,.73H17.52Z"/><path class="cls-1" d="M17.5,8.57H15.4c-.09,0-.2,0-.26,0s-.25-.19-.26-.3.11-.27.2-.37.17,0,.26,0h4.53a.36.36,0,0,1,.31.38.34.34,0,0,1-.34.35H17.5"/><path class="cls-1" d="M11.39,21H9.2c-.3,0-.48-.14-.48-.37s.18-.37.48-.37h4.39c.29,0,.45.13.45.36s-.15.38-.46.38H11.39"/><path class="cls-1" d="M17.53,4.72h2.26a.37.37,0,0,1,.39.36.38.38,0,0,1-.37.38H15.26a.37.37,0,0,1-.4-.37.37.37,0,0,1,.4-.37h2.27Z"/><path class="cls-1" d="M11.39,14.05h2.12a1,1,0,0,1,.24,0,.3.3,0,0,1,.28.31.69.69,0,0,1-.21.37c-.06.06-.2,0-.3,0H9.08a.36.36,0,0,1-.35-.36.36.36,0,0,1,.37-.37c.13,0,.26,0,.39,0Z"/><path class="cls-1" d="M11.4,17.89H9a.36.36,0,0,1,0-.7.92.92,0,0,1,.29,0h4.24a1.1,1.1,0,0,1,.26,0,.34.34,0,0,1,.27.38.34.34,0,0,1-.3.33H11.4"/><path class="cls-1" d="M11.38,19.44H9.16c-.32,0-.5-.21-.41-.47s.25-.27.46-.27c1.37,0,2.75,0,4.12,0h.32a.36.36,0,0,1,.39.37.35.35,0,0,1-.39.36H11.38"/><path class="cls-1" d="M17.5,21H15.35c-.32,0-.49-.13-.49-.37s.17-.37.48-.37h4.39a.62.62,0,0,1,.39.2.36.36,0,0,1,0,.35.52.52,0,0,1-.37.17c-.75,0-1.5,0-2.24,0"/><path class="cls-1" d="M10.73,8.44c.26,0,.38.09.43.27a.33.33,0,0,1-.17.41,3.41,3.41,0,0,1-.63.24.33.33,0,0,1-.4-.19.3.3,0,0,1,.09-.43,4.74,4.74,0,0,1,.68-.3"/><path class="cls-1" d="M17.17,13.28a1.41,1.41,0,1,1,0-2.82,1.41,1.41,0,0,1,0,2.82m0-2.08a.67.67,0,1,0,.67.66.68.68,0,0,0-.67-.66"/></svg>