<svg id="Layer_1" data-name="Layer 1" xmlns="http://www.w3.org/2000/svg" viewBox="0 0 25 25"><defs><style>.cls-1{fill-rule:evenodd;}</style></defs><title>users</title><path class="cls-1" d="M12.49,25H6c-.64,0-.87-.23-.87-.87,0-1.23,0-2.46,0-3.69a6,6,0,0,1,3-5.36,5.07,5.07,0,0,1,2-.75.9.9,0,0,1,.4.05,4.7,4.7,0,0,0,4,0,.9.9,0,0,1,.46-.05,6.09,6.09,0,0,1,5,6c0,1.29,0,2.58,0,3.86,0,.53-.26.78-.8.78h-6.6"/><path class="cls-1" d="M16.38,9.18v.75a3.88,3.88,0,0,1-7.75,0c0-.51,0-1,0-1.52a3.88,3.88,0,0,1,7.75,0c0,.26,0,.52,0,.78"/><path class="cls-1" d="M8.74,13.38c-.26.12-.52.23-.77.37a7.26,7.26,0,0,0-4.08,6.33c0,.26-.1.32-.35.31-.93,0-1.86,0-2.8,0A.66.66,0,0,1,0,19.66c0-1.4,0-2.81,0-4.22A6.05,6.05,0,0,1,5,9.72a.7.7,0,0,1,.38,0,4.81,4.81,0,0,0,1.79.44c.15,0,.24.05.25.22a5.13,5.13,0,0,0,1.29,2.89.36.36,0,0,0,0,.07"/><path class="cls-1" d="M16.24,13.38a5.21,5.21,0,0,0,1.19-2.12,7.78,7.78,0,0,0,.16-.84c0-.15.07-.21.22-.21a4.94,4.94,0,0,0,1.85-.46.66.66,0,0,1,.37,0,6.12,6.12,0,0,1,5,6c0,1.29,0,2.57,0,3.86,0,.53-.25.78-.79.78-.9,0-1.81,0-2.72,0-.27,0-.36-.06-.37-.35a7.24,7.24,0,0,0-3.22-5.8,11.93,11.93,0,0,0-1.36-.74,3,3,0,0,0-.3-.13"/><path class="cls-1" d="M17.63,9.12V8.53A5.11,5.11,0,0,0,14,3.59c-.22-.07-.23-.17-.2-.36A3.91,3.91,0,0,1,17.68,0a3.82,3.82,0,0,1,3.76,3.35,7.24,7.24,0,0,1-.2,3.3,3.94,3.94,0,0,1-3.4,2.49l-.21,0"/><path class="cls-1" d="M7.38,9.14a3.7,3.7,0,0,1-2.21-.7,3.79,3.79,0,0,1-1.65-3,14,14,0,0,1,0-2.05A3.83,3.83,0,0,1,7.33,0a3.91,3.91,0,0,1,3.89,3.23c0,.2,0,.29-.21.36A5.11,5.11,0,0,0,7.38,8.51v.63"/></svg>